<svg id="Layer_1" data-name="Layer 1" xmlns="http://www.w3.org/2000/svg" viewBox="0 0 96 96"><defs><style>.cls-1{fill:none;opacity:0.3;}.cls-2{fill:#2c2f35;}</style></defs><title>ico-dribbble-drkgry</title><rect class="cls-1" width="96" height="96"/><path class="cls-2" d="M48,30A18,18,0,1,0,66,48,18,18,0,0,0,48,30Zm11.87,8.23a15.34,15.34,0,0,1,3.5,9.62,35.44,35.44,0,0,0-10.71-.51l-.33-.79c-.32-.75-.66-1.5-1-2.23C57.38,41.84,59.85,38.27,59.87,38.23ZM48,32.63a15.33,15.33,0,0,1,10.15,3.83c0,.06-2.22,3.39-8,5.57a77.93,77.93,0,0,0-5.74-9A15.4,15.4,0,0,1,48,32.63ZM41.44,34.1A91.67,91.67,0,0,1,47.15,43,56.31,56.31,0,0,1,33,44.83,15.37,15.37,0,0,1,41.44,34.1ZM32.63,48c0-.16,0-.32,0-.49a55.87,55.87,0,0,0,15.78-2.19c.44.87.86,1.74,1.25,2.62-.2.05-.41.11-.61.18-8.29,2.68-12.5,10.15-12.5,10.15h0A15.29,15.29,0,0,1,32.63,48ZM48,63.37a15.3,15.3,0,0,1-9.46-3.26L38.35,60l.19.15h0s3-6.43,12.07-9.61l.1,0A64.16,64.16,0,0,1,54,62.16,15.34,15.34,0,0,1,48,63.37Zm8.59-2.62a67.41,67.41,0,0,0-3-11,22.44,22.44,0,0,1,9.58.67A15.42,15.42,0,0,1,56.59,60.75Z" transform="translate(0 0)"/></svg>