<svg id="Layer_1" data-name="Layer 1" xmlns="http://www.w3.org/2000/svg" viewBox="0 0 96 96"><defs><style>.cls-1{fill:none;opacity:0.3;}.cls-2{fill:#2c2f35;}</style></defs><title>ico-instagram-drkgry</title><rect class="cls-1" width="96" height="96"/><path class="cls-2" d="M48,33.24c4.81,0,5.38,0,7.27.11a9.93,9.93,0,0,1,3.35.62A5.89,5.89,0,0,1,62,37.38a9.93,9.93,0,0,1,.62,3.35c.09,1.89.11,2.46.11,7.27s0,5.38-.11,7.27A9.93,9.93,0,0,1,62,58.62,5.89,5.89,0,0,1,58.62,62a9.93,9.93,0,0,1-3.35.62c-1.89.09-2.46.11-7.27.11s-5.38,0-7.27-.11A9.93,9.93,0,0,1,37.38,62,5.89,5.89,0,0,1,34,58.62a9.93,9.93,0,0,1-.62-3.35c-.09-1.89-.11-2.46-.11-7.27s0-5.38.11-7.27A9.93,9.93,0,0,1,34,37.38,5.89,5.89,0,0,1,37.38,34a9.93,9.93,0,0,1,3.35-.62c1.89-.09,2.46-.11,7.27-.11M48,30c-4.89,0-5.5,0-7.42.11a13.38,13.38,0,0,0-4.37.83,9.24,9.24,0,0,0-5.27,5.27,13.38,13.38,0,0,0-.83,4.37C30,42.5,30,43.11,30,48s0,5.5.11,7.42a13.38,13.38,0,0,0,.83,4.37,9.24,9.24,0,0,0,5.27,5.27,13.38,13.38,0,0,0,4.37.83C42.5,66,43.11,66,48,66s5.5,0,7.42-.11a13.38,13.38,0,0,0,4.37-.83,9.24,9.24,0,0,0,5.27-5.27,13.38,13.38,0,0,0,.83-4.37C66,53.5,66,52.89,66,48s0-5.5-.11-7.42a13.38,13.38,0,0,0-.83-4.37,9.24,9.24,0,0,0-5.27-5.27,13.38,13.38,0,0,0-4.37-.83C53.5,30,52.89,30,48,30Z" transform="translate(0 0)"/><path class="cls-2" d="M48,38.76A9.24,9.24,0,1,0,57.24,48,9.24,9.24,0,0,0,48,38.76ZM48,54a6,6,0,1,1,6-6A6,6,0,0,1,48,54Z" transform="translate(0 0)"/><circle class="cls-2" cx="57.61" cy="38.39" r="2.16"/></svg>