<svg id="Layer_1" data-name="Layer 1" xmlns="http://www.w3.org/2000/svg" viewBox="0 0 96 96"><defs><style>.cls-1{fill:none;opacity:0.3;}.cls-2{fill:#2c2f35;}</style></defs><title>ico-twitter-drkgry</title><rect class="cls-1" width="96" height="96"/><rect class="cls-1" width="96" height="96"/><path class="cls-2" d="M68.62,39c0,.38,0,.78,0,1.17,0,12-9.14,25.86-25.86,25.86a25.79,25.79,0,0,1-13.93-4.08A19.46,19.46,0,0,0,31,62a18.22,18.22,0,0,0,11.29-3.89,9.08,9.08,0,0,1-8.49-6.31,8.7,8.7,0,0,0,1.71.16,9,9,0,0,0,2.39-.32,9.08,9.08,0,0,1-7.29-8.91v-.11a9.13,9.13,0,0,0,4.12,1.14,9.13,9.13,0,0,1-2.82-12.14,25.82,25.82,0,0,0,18.74,9.5,8.88,8.88,0,0,1-.24-2.07,9.09,9.09,0,0,1,15.72-6.22,18.15,18.15,0,0,0,5.78-2.21,9.12,9.12,0,0,1-4,5,18.26,18.26,0,0,0,5.22-1.43A18.78,18.78,0,0,1,68.62,39Z" transform="translate(0 0)"/></svg>